<svg width="30" height="30" viewBox="0 0 30 30" fill="none" xmlns="http://www.w3.org/2000/svg">
<path d="M21.767 21.61C21.6235 21.614 21.48 21.617 21.3365 21.6195C21.309 21.62 21.2815 21.6205 21.2535 21.621C21.0855 21.6235 20.9175 21.6245 20.75 21.6245C20.582 21.6245 20.4135 21.623 20.245 21.621C20.2225 21.6205 20.1995 21.62 20.177 21.6195C20.028 21.617 19.8795 21.614 19.7305 21.6095C19.72 21.6095 19.7095 21.609 19.6995 21.6085C16.2745 21.5075 12.8805 20.911 11 19.8495V21.625V21.8125V22V23.0455C12.069 24.1235 15.801 25.125 20.75 25.125C25.104 25.125 28.5135 24.3495 30 23.4295V22V21.8125V21.625V20.1045C28.0565 21.0055 24.9485 21.5145 21.8135 21.6085C21.798 21.609 21.7825 21.6095 21.767 21.61Z" fill="#F5F5F5"/>
<path d="M11 15.3475V17.125V17.3125V17.5V18.537C11.026 18.563 11.049 18.5895 11.0785 18.6155C11.1005 18.6355 11.122 18.6555 11.146 18.6755C12.4 19.7 16.099 20.625 20.75 20.625C25.024 20.625 28.4925 19.8435 30 18.9225V17.5V17.3125V17.125V15.6C27.8345 16.6 24.224 17.125 20.75 17.125C16.9935 17.125 13.0755 16.5115 11 15.3475Z" fill="#F5F5F5"/>
<path d="M11 24.3495V26.5C11 26.575 11.018 26.647 11.05 26.711C11.5735 28.871 16.156 30 20.5 30C24.836 30 29.408 28.8755 29.9475 26.7235C29.981 26.6565 30 26.5805 30 26.5V24.6045C27.837 25.6075 24.23 26.125 20.75 26.125C16.9855 26.125 13.073 25.52 11 24.3495Z" fill="#F5F5F5"/>
<path d="M20.5 9.125C16.155 9.125 11.555 10.276 11.048 12.417C11.0185 12.481 11 12.55 11 12.625V12.8125V14.037C12.0765 15.1145 15.8895 16.125 20.75 16.125C25.024 16.125 28.4925 15.3435 30 14.4225V12.8125V12.625C30 12.5525 29.982 12.485 29.953 12.423C29.453 10.278 24.849 9.125 20.5 9.125Z" fill="#F5F5F5"/>
<path d="M27.696 0H2.304C1.0335 0 0 1.0335 0 2.304V8.1955C0 8.6825 0.157 9.13 0.4175 9.5H12.4255C14.4125 8.5975 17.393 8.125 20.272 8.125C23.151 8.125 26.131 8.598 28.118 9.5H29.582C29.843 9.13 30 8.6825 30 8.196V2.304C30 1.0335 28.9665 0 27.696 0ZM5.25 7.5C4.0095 7.5 3 6.4905 3 5.25C3 4.0095 4.0095 3 5.25 3C6.4905 3 7.5 4.0095 7.5 5.25C7.5 6.4905 6.4905 7.5 5.25 7.5ZM17 5C16.724 5 16.5 4.776 16.5 4.5C16.5 4.224 16.724 4 17 4C17.276 4 17.5 4.224 17.5 4.5C17.5 4.776 17.276 5 17 5ZM18 6.5C17.724 6.5 17.5 6.276 17.5 6C17.5 5.724 17.724 5.5 18 5.5C18.276 5.5 18.5 5.724 18.5 6C18.5 6.276 18.276 6.5 18 6.5ZM19 5C18.724 5 18.5 4.776 18.5 4.5C18.5 4.224 18.724 4 19 4C19.276 4 19.5 4.224 19.5 4.5C19.5 4.776 19.276 5 19 5ZM20 6.5C19.724 6.5 19.5 6.276 19.5 6C19.5 5.724 19.724 5.5 20 5.5C20.276 5.5 20.5 5.724 20.5 6C20.5 6.276 20.276 6.5 20 6.5ZM21 5C20.724 5 20.5 4.776 20.5 4.5C20.5 4.224 20.724 4 21 4C21.276 4 21.5 4.224 21.5 4.5C21.5 4.776 21.276 5 21 5ZM22 6.5C21.724 6.5 21.5 6.276 21.5 6C21.5 5.724 21.724 5.5 22 5.5C22.276 5.5 22.5 5.724 22.5 6C22.5 6.276 22.276 6.5 22 6.5ZM23 5C22.724 5 22.5 4.776 22.5 4.5C22.5 4.224 22.724 4 23 4C23.276 4 23.5 4.224 23.5 4.5C23.5 4.776 23.276 5 23 5ZM24 6.5C23.724 6.5 23.5 6.276 23.5 6C23.5 5.724 23.724 5.5 24 5.5C24.276 5.5 24.5 5.724 24.5 6C24.5 6.276 24.276 6.5 24 6.5ZM25 5C24.724 5 24.5 4.776 24.5 4.5C24.5 4.224 24.724 4 25 4C25.276 4 25.5 4.224 25.5 4.5C25.5 4.776 25.276 5 25 5ZM26 6.5C25.724 6.5 25.5 6.276 25.5 6C25.5 5.724 25.724 5.5 26 5.5C26.276 5.5 26.5 5.724 26.5 6C26.5 6.276 26.276 6.5 26 6.5Z" fill="#F5F5F5"/>
<path d="M10 19C10 18.922 10 17.5 10 17.5V17.3125V17.125V15.3475V14.037V12.8125V12.625C10 12.55 10.0185 12.481 10.048 12.417C10.2305 11.6465 10.9485 11.0065 11.9885 10.5H0.4175C0.157 10.87 0 11.3175 0 11.804V17.6955C0 18.1825 0.157 18.63 0.4175 19H10ZM5.25 12.5C6.4905 12.5 7.5 13.5095 7.5 14.75C7.5 15.9905 6.4905 17 5.25 17C4.0095 17 3 15.9905 3 14.75C3 13.5095 4.0095 12.5 5.25 12.5Z" fill="#F5F5F5"/>
<path d="M11.359 28.2845C10.666 27.843 10.197 27.318 10.05 26.711C10.018 26.647 10 26.575 10 26.5V24.3495V23.046V22V21.8125V21.625V20H0.4175C0.157 20.37 0 20.8175 0 21.304V27.1955C0 28.4685 1.0315 29.5 2.304 29.5H11.0385C11.044 29.5 11.049 29.5 11.0545 29.5C11.688 29.491 11.893 28.6245 11.359 28.2845ZM5.25 26.5C4.0095 26.5 3 25.4905 3 24.25C3 23.0095 4.0095 22 5.25 22C6.4905 22 7.5 23.0095 7.5 24.25C7.5 25.4905 6.4905 26.5 5.25 26.5Z" fill="#F5F5F5"/>
</svg>
