<svg width="20" height="20" viewBox="0 0 20 20" fill="none" xmlns="http://www.w3.org/2000/svg">
<path d="M10 20C15.5228 20 20 15.5228 20 10C20 4.47715 15.5228 0 10 0C4.47715 0 0 4.47715 0 10C0 15.5228 4.47715 20 10 20Z" fill="#7F7F7F"/>
<path d="M15.9749 10.8047V14.9275H13.5846V11.081C13.5846 10.1152 13.2395 9.45567 12.3741 9.45567C11.7136 9.45567 11.3213 9.89971 11.148 10.3297C11.0851 10.4833 11.0689 10.6967 11.0689 10.9122V14.9273H8.67839C8.67839 14.9273 8.71048 8.41267 8.67839 7.73831H11.069V8.75707C11.0642 8.76509 11.0574 8.77293 11.0532 8.7806H11.069V8.75707C11.3867 8.26828 11.9532 7.5695 13.2233 7.5695C14.7959 7.5695 15.9749 8.59699 15.9749 10.8047ZM6.17777 4.27295C5.36009 4.27295 4.82513 4.80969 4.82513 5.51488C4.82513 6.2051 5.34458 6.75735 6.14639 6.75735H6.1619C6.99562 6.75735 7.514 6.2051 7.514 5.51488C7.49813 4.80969 6.99562 4.27295 6.17777 4.27295ZM4.96721 14.9275H7.35678V7.73831H4.96721V14.9275Z" fill="#F1F2F2"/>
</svg>
