<svg width="20" height="20" viewBox="0 0 20 20" fill="none" xmlns="http://www.w3.org/2000/svg">
<path d="M20 10.2505C20 12.4838 19.3641 14.4926 18.0924 16.2766C16.8207 18.0606 15.178 19.2952 13.1641 19.9804C12.9297 20.0249 12.7582 19.9937 12.6497 19.8869C12.5412 19.7802 12.487 19.6467 12.487 19.4865V16.6703C12.487 15.8072 12.2613 15.1755 11.8099 14.7751C12.3047 14.7217 12.7496 14.6416 13.1445 14.5348C13.5395 14.428 13.9475 14.2545 14.3685 14.0143C14.7895 13.774 15.1411 13.4782 15.4232 13.1267C15.7053 12.7752 15.9353 12.3081 16.1133 11.7253C16.2912 11.1425 16.3802 10.4729 16.3802 9.71657C16.3802 8.63992 16.0373 7.72343 15.3516 6.9671C15.6727 6.15739 15.638 5.2498 15.2474 4.24433C15.0043 4.16425 14.6528 4.21318 14.1927 4.39114C13.7326 4.5691 13.3333 4.76486 12.9948 4.97841L12.5 5.29874C11.6927 5.06739 10.8594 4.95172 10 4.95172C9.14062 4.95172 8.30729 5.06739 7.5 5.29874C7.36111 5.20086 7.17665 5.08074 6.94661 4.93837C6.71658 4.796 6.35417 4.62472 5.85938 4.42451C5.36458 4.22431 4.99132 4.16425 4.73958 4.24433C4.35764 5.2498 4.32726 6.15739 4.64844 6.9671C3.96267 7.72343 3.61979 8.63992 3.61979 9.71657C3.61979 10.4729 3.70877 11.1402 3.88672 11.7186C4.06467 12.297 4.29253 12.7641 4.57031 13.12C4.84809 13.476 5.19748 13.774 5.61849 14.0143C6.0395 14.2545 6.44748 14.428 6.84245 14.5348C7.23741 14.6416 7.68229 14.7217 8.17708 14.7751C7.82986 15.0954 7.61719 15.5536 7.53906 16.1498C7.35677 16.2388 7.16146 16.3055 6.95312 16.35C6.74479 16.3945 6.4974 16.4167 6.21094 16.4167C5.92448 16.4167 5.64019 16.3211 5.35807 16.1298C5.07595 15.9385 4.83507 15.6604 4.63542 15.2956C4.47049 15.0109 4.25998 14.7795 4.00391 14.6016C3.74783 14.4236 3.53299 14.3168 3.35938 14.2812L3.09896 14.2412C2.91667 14.2412 2.7908 14.2612 2.72135 14.3012C2.65191 14.3413 2.63021 14.3925 2.65625 14.4547C2.68229 14.517 2.72135 14.5793 2.77344 14.6416C2.82552 14.7039 2.88194 14.7573 2.94271 14.8018L3.03385 14.8685C3.22483 14.9575 3.41363 15.1265 3.60026 15.3757C3.78689 15.6248 3.92361 15.8517 4.01042 16.0564L4.14062 16.3634C4.25347 16.7015 4.44444 16.9751 4.71354 17.1842C4.98264 17.3933 5.27344 17.5268 5.58594 17.5846C5.89844 17.6424 6.20009 17.6736 6.49089 17.678C6.78168 17.6825 7.02257 17.6669 7.21354 17.6313L7.51302 17.5779C7.51302 17.916 7.51519 18.312 7.51953 18.7658C7.52387 19.2196 7.52604 19.4598 7.52604 19.4865C7.52604 19.6467 7.46962 19.7802 7.35677 19.8869C7.24392 19.9937 7.07031 20.0249 6.83594 19.9804C4.82205 19.2952 3.17925 18.0606 1.90755 16.2766C0.635851 14.4926 0 12.4838 0 10.2505C0 8.39078 0.447049 6.6757 1.34115 5.10521C2.23524 3.53472 3.44835 2.29123 4.98047 1.37473C6.51259 0.458245 8.18576 0 10 0C11.8142 0 13.4874 0.458245 15.0195 1.37473C16.5516 2.29123 17.7648 3.53472 18.6589 5.10521C19.553 6.6757 20 8.39078 20 10.2505Z" fill="#7F7F7F"/>
</svg>
