<svg width="35" height="35" viewBox="0 0 35 35" fill="none" xmlns="http://www.w3.org/2000/svg">
<path d="M17.5 16.0417H14.5833V17.5H17.5V16.0417Z" fill="#F5F5F5"/>
<path d="M0 33.5417C0 34.3467 0.651875 35 1.45831 35H7.29162V11.6667H0V33.5417Z" fill="#F5F5F5"/>
<path d="M17.5 26.25H14.5833V27.7083H17.5V26.25Z" fill="#F5F5F5"/>
<path d="M33.5417 0H1.45831C0.651875 0 0 0.653311 0 1.45831V8.75H35V1.45831C35 0.653311 34.3481 0 33.5417 0ZM5.83331 7.29169C5.02831 7.29169 4.375 6.63831 4.375 5.83331C4.375 5.02831 5.02831 4.375 5.83331 4.375C6.63831 4.375 7.29162 5.02831 7.29162 5.83331C7.29162 6.63831 6.63831 7.29169 5.83331 7.29169ZM10.2083 7.29169C9.40331 7.29169 8.75 6.63838 8.75 5.83338C8.75 5.02838 9.40331 4.375 10.2083 4.375C11.0133 4.375 11.6666 5.02831 11.6666 5.83331C11.6666 6.63831 11.0133 7.29169 10.2083 7.29169ZM14.5833 7.29169C13.7783 7.29169 13.125 6.63838 13.125 5.83338C13.125 5.02838 13.7783 4.375 14.5833 4.375C15.3883 4.375 16.0416 5.02831 16.0416 5.83331C16.0416 6.63831 15.3883 7.29169 14.5833 7.29169Z" fill="#F5F5F5"/>
<path d="M10.2083 35H33.5416C34.3481 35 34.9999 34.3467 34.9999 33.5417V11.6667H10.2083V35ZM21.875 14.5833C21.875 13.7783 22.5269 13.125 23.3333 13.125H29.1666C29.9731 13.125 30.6249 13.7783 30.6249 14.5833V18.9583C30.6249 19.7633 29.9731 20.4166 29.1666 20.4166H23.3333C22.5269 20.4166 21.875 19.7633 21.875 18.9583V14.5833ZM21.875 24.7917C21.875 23.9867 22.5269 23.3334 23.3333 23.3334H29.1666C29.9731 23.3334 30.6249 23.9867 30.6249 24.7917V29.1667C30.6249 29.9717 29.9731 30.625 29.1666 30.625H23.3333C22.5269 30.625 21.875 29.9717 21.875 29.1667V24.7917ZM11.6667 14.5833C11.6667 13.7783 12.3186 13.125 13.125 13.125H18.9583C19.7647 13.125 20.4166 13.7783 20.4166 14.5833V18.9583C20.4166 19.7633 19.7647 20.4166 18.9583 20.4166H13.125C12.3186 20.4166 11.6667 19.7633 11.6667 18.9583V14.5833ZM11.6667 24.7917C11.6667 23.9867 12.3186 23.3334 13.125 23.3334H18.9583C19.7647 23.3334 20.4166 23.9867 20.4166 24.7917V29.1667C20.4166 29.9717 19.7647 30.625 18.9583 30.625H13.125C12.3186 30.625 11.6667 29.9717 11.6667 29.1667V24.7917Z" fill="#F5F5F5"/>
<path d="M27.7084 16.0417H24.7917V17.5H27.7084V16.0417Z" fill="#F5F5F5"/>
<path d="M27.7084 26.25H24.7917V27.7083H27.7084V26.25Z" fill="#F5F5F5"/>
</svg>
