<svg width="50" height="50" viewBox="0 0 50 50" fill="none" xmlns="http://www.w3.org/2000/svg">
<path d="M25 50C38.8071 50 50 38.8071 50 25C50 11.1929 38.8071 0 25 0C11.1929 0 0 11.1929 0 25C0 38.8071 11.1929 50 25 50Z" fill="#0A66C2"/>
<path d="M39.9373 27.0118V37.3188H33.9616V27.7026C33.9616 25.2881 33.0988 23.6392 30.9352 23.6392C29.284 23.6392 28.3031 24.7493 27.87 25.8242C27.7127 26.2083 27.6721 26.7418 27.6721 27.2806V37.3183H21.696C21.696 37.3183 21.7762 21.0317 21.696 19.3458H27.6726V21.8927C27.6605 21.9127 27.6436 21.9323 27.6329 21.9515H27.6726V21.8927C28.4667 20.6707 29.883 18.9238 33.0582 18.9238C36.9897 18.9238 39.9373 21.4925 39.9373 27.0118ZM15.4444 10.6824C13.4002 10.6824 12.0628 12.0242 12.0628 13.7872C12.0628 15.5128 13.3614 16.8934 15.366 16.8934H15.4047C17.489 16.8934 18.785 15.5128 18.785 13.7872C18.7453 12.0242 17.489 10.6824 15.4444 10.6824ZM12.418 37.3188H18.3919V19.3458H12.418V37.3188Z" fill="#F1F2F2"/>
</svg>
