<svg width="50" height="50" viewBox="0 0 50 50" fill="none" xmlns="http://www.w3.org/2000/svg">
<path fill-rule="evenodd" clip-rule="evenodd" d="M24.9987 10.823C28.8077 8.62221 33.1173 7.46921 37.5007 7.47815C39.529 7.47742 41.5502 7.72315 43.5209 8.21008C41.1631 5.61367 38.2989 3.54305 35.1103 2.12969C31.9217 0.716334 28.4783 -0.00888396 24.9987 8.21331e-05C21.5191 -0.00888396 18.0757 0.716334 14.887 2.12969C11.6984 3.54305 8.83426 5.61367 6.47642 8.21008C8.44804 7.72293 10.4701 7.47721 12.4993 7.47815C17.053 7.47815 21.3229 8.69713 24.9987 10.823Z" fill="#FFC600"/>
<path fill-rule="evenodd" clip-rule="evenodd" d="M0.989231 18.0264C0.332533 20.2905 -0.000603105 22.6384 8.19638e-07 24.9985C8.19638e-07 36.731 8.08094 46.5717 18.9758 49.268C14.8639 44.7556 12.5568 38.8506 12.5046 32.7053C6.94124 29.5043 2.81459 24.243 0.989231 18.0237" fill="#FF4807"/>
<path fill-rule="evenodd" clip-rule="evenodd" d="M12.5046 32.7055L12.4993 32.4794C12.4993 23.2227 17.5277 15.1472 24.9987 10.8229C21.1904 8.62259 16.8818 7.46961 12.4993 7.47807C10.4227 7.47807 8.40715 7.73371 6.47907 8.21C3.93203 11.0111 2.05371 14.3689 0.989227 18.0238C2.81419 24.2426 6.93978 29.5037 12.502 32.7055" fill="#FF97B1"/>
<path fill-rule="evenodd" clip-rule="evenodd" d="M37.498 32.7053C37.4454 38.851 35.1372 44.7562 31.0242 49.268C41.9191 46.5717 50 36.7283 50 24.9985C50 22.5767 49.6552 20.2383 49.0108 18.0237C47.1858 24.2424 43.0602 29.5036 37.498 32.7053" fill="#0A78FF"/>
<path fill-rule="evenodd" clip-rule="evenodd" d="M37.5007 7.47808C33.1174 7.46927 28.8078 8.62226 24.9987 10.8229C32.4723 15.1472 37.5007 23.2253 37.5007 32.4794L37.498 32.7055C43.0602 29.5037 47.1858 24.2426 49.0108 18.0238C47.9463 14.3689 46.068 11.0111 43.5209 8.21001C41.5502 7.72308 39.529 7.47735 37.5007 7.47808" fill="#00B450"/>
<mask id="mask0_14_396" style="mask-type:alpha" maskUnits="userSpaceOnUse" x="12" y="32" width="26" height="18">
<path d="M12.5046 32.7056H37.498V50.0001H12.5046V32.7056Z" fill="white"/>
</mask>
<g mask="url(#mask0_14_396)">
<path fill-rule="evenodd" clip-rule="evenodd" d="M25.0013 36.0504C20.6198 36.0584 16.3122 34.9054 12.5046 32.7056C12.5575 38.8512 14.8656 44.7562 18.9784 49.2682C22.9356 50.2486 27.0671 50.2486 31.0242 49.2682C35.1372 44.7564 37.4454 38.8512 37.498 32.7056C33.6905 34.9054 29.3829 36.0584 25.0013 36.0504" fill="#BF17A7"/>
</g>
<path fill-rule="evenodd" clip-rule="evenodd" d="M12.4994 32.4768L12.502 32.7056C16.3098 34.9045 20.6174 36.0565 24.9987 36.0477C29.3809 36.057 33.6895 34.9049 37.498 32.7056V32.4795C37.498 23.2228 32.4723 15.1473 24.9987 10.823C17.5277 15.1473 12.4994 23.2255 12.4994 32.4795" fill="#002D72"/>
</svg>
