<svg width="221" height="30" viewBox="0 0 221 30" fill="none" xmlns="http://www.w3.org/2000/svg">
<path d="M39.975 24V7.325H50.9V9.65H42.75V14.475H49.85V16.825H42.725V21.675H50.9V24H39.975ZM54.6234 24V7.325H62.0234C63.7568 7.325 65.0818 7.75 65.9984 8.6C66.9318 9.43333 67.3984 10.6833 67.3984 12.35C67.3984 13.2167 67.2234 14.0167 66.8734 14.75C66.5234 15.4833 66.0151 16.0833 65.3484 16.55C64.6818 17.0167 63.8901 17.2833 62.9734 17.35L63.2734 16.5L68.2234 24H64.7984L60.1734 16.525L61.4484 17.7H57.3734V24H54.6234ZM57.3734 15.45H61.2484C62.3484 15.45 63.1651 15.2083 63.6984 14.725C64.2484 14.2417 64.5234 13.5083 64.5234 12.525C64.5234 11.6083 64.3068 10.9 63.8734 10.4C63.4568 9.9 62.7318 9.65 61.6984 9.65H57.3734V15.45ZM76.3494 24.275C75.5161 24.275 74.7827 24.225 74.1494 24.125C73.5161 24.0417 72.9411 23.9 72.4244 23.7C71.9077 23.5 71.3744 23.2583 70.8244 22.975V20.225C71.4744 20.7417 72.2577 21.1667 73.1744 21.5C74.1077 21.8333 75.1077 22 76.1744 22C77.2077 22 77.9744 21.7917 78.4744 21.375C78.9911 20.9417 79.2494 20.35 79.2494 19.6C79.2494 19.0167 79.0577 18.55 78.6744 18.2C78.3077 17.8333 77.8161 17.525 77.1994 17.275C76.5827 17.025 75.9244 16.775 75.2244 16.525C74.6911 16.325 74.1661 16.1167 73.6494 15.9C73.1327 15.6667 72.6661 15.3833 72.2494 15.05C71.8327 14.7 71.4994 14.2583 71.2494 13.725C70.9994 13.1917 70.8744 12.5333 70.8744 11.75C70.8744 11.2 70.9827 10.6417 71.1994 10.075C71.4161 9.50833 71.7411 9 72.1744 8.55C72.6244 8.08333 73.2077 7.71667 73.9244 7.45C74.6577 7.16667 75.5327 7.025 76.5494 7.025C77.2161 7.025 77.7911 7.06667 78.2744 7.15C78.7744 7.23333 79.2411 7.36667 79.6744 7.55C80.1244 7.71667 80.6077 7.925 81.1244 8.175V10.875C80.7077 10.6083 80.2827 10.3583 79.8494 10.125C79.4327 9.89167 78.9744 9.7 78.4744 9.55C77.9744 9.4 77.4161 9.31667 76.7994 9.3C76.0994 9.28333 75.5244 9.36667 75.0744 9.55C74.6244 9.73333 74.2827 9.99167 74.0494 10.325C73.8161 10.6583 73.6994 11.0417 73.6994 11.475C73.6994 12.0583 73.8411 12.525 74.1244 12.875C74.4244 13.2083 74.8411 13.4917 75.3744 13.725C75.9077 13.9417 76.5244 14.1583 77.2244 14.375C77.8411 14.575 78.4411 14.8 79.0244 15.05C79.6077 15.3 80.1244 15.6083 80.5744 15.975C81.0244 16.325 81.3827 16.7667 81.6494 17.3C81.9327 17.8333 82.0744 18.4917 82.0744 19.275C82.0744 20.1417 81.8744 20.9583 81.4744 21.725C81.0911 22.475 80.4744 23.0917 79.6244 23.575C78.7911 24.0417 77.6994 24.275 76.3494 24.275ZM88.1107 18.025V24H85.3607V7.325H91.9607C93.8607 7.325 95.3274 7.76667 96.3607 8.65C97.4107 9.53333 97.9357 10.85 97.9357 12.6C97.9357 14.35 97.4107 15.6917 96.3607 16.625C95.3274 17.5583 93.8607 18.025 91.9607 18.025H88.1107ZM88.1107 15.675H91.6107C92.3274 15.675 92.9107 15.6 93.3607 15.45C93.8107 15.2833 94.1607 15.0583 94.4107 14.775C94.6607 14.475 94.8274 14.15 94.9107 13.8C95.0107 13.45 95.0607 13.0833 95.0607 12.7C95.0607 12.3167 95.0107 11.9417 94.9107 11.575C94.8274 11.2083 94.6607 10.8833 94.4107 10.6C94.1607 10.3 93.8107 10.0667 93.3607 9.9C92.9107 9.73333 92.3274 9.65 91.6107 9.65H88.1107V15.675ZM108.33 24.275C106.68 24.275 105.272 23.9583 104.105 23.325C102.955 22.6917 102.08 21.7417 101.48 20.475C100.88 19.2083 100.58 17.6083 100.58 15.675C100.58 12.825 101.238 10.675 102.555 9.225C103.888 7.775 105.813 7.05 108.33 7.05C109.997 7.05 111.405 7.36667 112.555 8C113.705 8.63333 114.58 9.59167 115.18 10.875C115.797 12.1417 116.105 13.7417 116.105 15.675C116.105 18.5083 115.438 20.65 114.105 22.1C112.788 23.55 110.863 24.275 108.33 24.275ZM108.33 21.9C109.447 21.9 110.363 21.6917 111.08 21.275C111.813 20.8417 112.355 20.1667 112.705 19.25C113.072 18.3333 113.255 17.1333 113.255 15.65C113.255 14.1833 113.072 13 112.705 12.1C112.355 11.1833 111.813 10.5167 111.08 10.1C110.363 9.66667 109.447 9.45 108.33 9.45C107.23 9.45 106.313 9.66667 105.58 10.1C104.847 10.5333 104.297 11.2083 103.93 12.125C103.58 13.025 103.405 14.2083 103.405 15.675C103.405 17.1417 103.58 18.3333 103.93 19.25C104.297 20.1667 104.847 20.8417 105.58 21.275C106.313 21.6917 107.23 21.9 108.33 21.9ZM119.37 24V7.325H126.77C128.503 7.325 129.828 7.75 130.745 8.6C131.678 9.43333 132.145 10.6833 132.145 12.35C132.145 13.2167 131.97 14.0167 131.62 14.75C131.27 15.4833 130.761 16.0833 130.095 16.55C129.428 17.0167 128.636 17.2833 127.72 17.35L128.02 16.5L132.97 24H129.545L124.92 16.525L126.195 17.7H122.12V24H119.37ZM122.12 15.45H125.995C127.095 15.45 127.911 15.2083 128.445 14.725C128.995 14.2417 129.27 13.5083 129.27 12.525C129.27 11.6083 129.053 10.9 128.62 10.4C128.203 9.9 127.478 9.65 126.445 9.65H122.12V15.45ZM139.579 24V9.65H134.179V7.325H147.729V9.65H142.329V24H139.579ZM150.229 24V7.325H160.929V9.65H152.979V14.625H159.929V16.975H152.979V24H150.229ZM171.123 24.275C169.473 24.275 168.065 23.9583 166.898 23.325C165.748 22.6917 164.873 21.7417 164.273 20.475C163.673 19.2083 163.373 17.6083 163.373 15.675C163.373 12.825 164.031 10.675 165.348 9.225C166.681 7.775 168.606 7.05 171.123 7.05C172.79 7.05 174.198 7.36667 175.348 8C176.498 8.63333 177.373 9.59167 177.973 10.875C178.59 12.1417 178.898 13.7417 178.898 15.675C178.898 18.5083 178.231 20.65 176.898 22.1C175.581 23.55 173.656 24.275 171.123 24.275ZM171.123 21.9C172.24 21.9 173.156 21.6917 173.873 21.275C174.606 20.8417 175.148 20.1667 175.498 19.25C175.865 18.3333 176.048 17.1333 176.048 15.65C176.048 14.1833 175.865 13 175.498 12.1C175.148 11.1833 174.606 10.5167 173.873 10.1C173.156 9.66667 172.24 9.45 171.123 9.45C170.023 9.45 169.106 9.66667 168.373 10.1C167.64 10.5333 167.09 11.2083 166.723 12.125C166.373 13.025 166.198 14.2083 166.198 15.675C166.198 17.1417 166.373 18.3333 166.723 19.25C167.09 20.1667 167.64 20.8417 168.373 21.275C169.106 21.6917 170.023 21.9 171.123 21.9ZM182.163 24V7.325H184.938V21.65H192.888V24H182.163ZM195.566 24V7.325H198.341V24H195.566ZM209.38 24.275C207.73 24.275 206.321 23.9583 205.155 23.325C204.005 22.6917 203.13 21.7417 202.53 20.475C201.93 19.2083 201.63 17.6083 201.63 15.675C201.63 12.825 202.288 10.675 203.605 9.225C204.938 7.775 206.863 7.05 209.38 7.05C211.046 7.05 212.455 7.36667 213.605 8C214.755 8.63333 215.63 9.59167 216.23 10.875C216.846 12.1417 217.155 13.7417 217.155 15.675C217.155 18.5083 216.488 20.65 215.155 22.1C213.838 23.55 211.913 24.275 209.38 24.275ZM209.38 21.9C210.496 21.9 211.413 21.6917 212.13 21.275C212.863 20.8417 213.405 20.1667 213.755 19.25C214.121 18.3333 214.305 17.1333 214.305 15.65C214.305 14.1833 214.121 13 213.755 12.1C213.405 11.1833 212.863 10.5167 212.13 10.1C211.413 9.66667 210.496 9.45 209.38 9.45C208.28 9.45 207.363 9.66667 206.63 10.1C205.896 10.5333 205.346 11.2083 204.98 12.125C204.63 13.025 204.455 14.2083 204.455 15.675C204.455 17.1417 204.63 18.3333 204.98 19.25C205.346 20.1667 205.896 20.8417 206.63 21.275C207.363 21.6917 208.28 21.9 209.38 21.9Z" fill="#464E50"/>
<circle cx="9.5" cy="9.5" r="9.5" fill="#11B0D3"/>
<circle cx="20.5" cy="20.5" r="9.5" fill="#5DC8DF"/>
</svg>
